<svg width="25" height="25" viewBox="0 0 25 25" fill="none" xmlns="http://www.w3.org/2000/svg">
<path fill-rule="evenodd" clip-rule="evenodd" d="M11.7026 0.205645L0.507026 8.82544C0.204494 8.99797 0 9.32764 0 9.70587V23.9916C0 24.5485 0.44328 25 0.990098 25H24.0099C24.5567 25 25 24.5485 25 23.9916V9.70587C25 9.31584 24.7826 8.97758 24.4645 8.80983L12.8907 0.197761C12.5369 -0.0688366 12.0529 -0.0655741 11.7026 0.205645ZM4.04676 13.3464L12.4588 7.21884L20.8708 13.3464V19.9777L12.4588 13.8501L4.04676 19.9777V13.3464Z" fill="#317DFC"/>
<path d="M4.04814 13.3659L12.4601 7.23831V13.8696L4.04814 19.9972V13.3659Z" fill="white"/>
<path d="M20.8721 13.3659L12.4601 7.23831V13.8696L20.8721 19.9972V13.3659Z" fill="white"/>
</svg>
